<?xml version="1.0" encoding="UTF-8"?>
<svg xmlns="http://www.w3.org/2000/svg" xmlns:xlink="http://www.w3.org/1999/xlink" width="20px" height="45px" viewBox="0 0 20 15" version="1.1">
<defs>
<filter id="alpha" filterUnits="objectBoundingBox" x="0%" y="0%" width="100%" height="100%">
  <feColorMatrix type="matrix" in="SourceGraphic" values="0 0 0 0 1 0 0 0 0 1 0 0 0 0 1 0 0 0 1 0"/>
</filter>
<mask id="mask0">
  <g filter="url(#alpha)">
<rect x="0" y="0" width="20" height="15" style="fill:rgb(0%,0%,0%);fill-opacity:0.8;stroke:none;"/>
  </g>
</mask>
<linearGradient id="linear0" gradientUnits="userSpaceOnUse" x1="95.266701" y1="91.9263" x2="26.700001" y2="30.68" gradientTransform="matrix(0.166667,0,0,0.166667,-0.667056,-3.166666)">
<stop offset="0" style="stop-color:rgb(66.27451%,78.431373%,100%);stop-opacity:1;"/>
<stop offset="1" style="stop-color:rgb(78.039216%,90.196078%,100%);stop-opacity:1;"/>
</linearGradient>
<clipPath id="clip1">
  <rect x="0" y="0" width="20" height="15"/>
</clipPath>
<g id="surface6" clip-path="url(#clip1)">
<path style=" stroke:none;fill-rule:evenodd;fill:url(#linear0);" d="M 0.839844 15 C 0.566406 15 0.332031 14.894531 0.175781 14.699219 C 0.015625 14.503906 -0.0390625 14.230469 0.0273438 13.957031 L 3.023438 0.96875 C 3.148438 0.425781 3.675781 0 4.222656 0 L 19.160156 0 C 19.433594 0 19.667969 0.105469 19.824219 0.300781 C 19.984375 0.496094 20.039062 0.769531 19.972656 1.042969 L 16.976562 14.03125 C 16.851562 14.574219 16.324219 15 15.777344 15 Z M 0.839844 15 "/>
</g>
<linearGradient id="linear1" gradientUnits="userSpaceOnUse" x1="26.5854" y1="30.7778" x2="93.585403" y2="90.277802" gradientTransform="matrix(0.166667,0,0,0.166667,-0.667056,-3.166666)">
<stop offset="0" style="stop-color:rgb(17.647059%,27.45098%,39.215686%);stop-opacity:1;"/>
<stop offset="0.1689" style="stop-color:rgb(16.078431%,25.098039%,35.686275%);stop-opacity:1;"/>
<stop offset="0.4445" style="stop-color:rgb(11.764706%,18.431373%,26.27451%);stop-opacity:1;"/>
<stop offset="0.7902" style="stop-color:rgb(4.705882%,7.45098%,10.588235%);stop-opacity:1;"/>
<stop offset="1" style="stop-color:rgb(0%,0%,0%);stop-opacity:1;"/>
</linearGradient>
</defs>
<g id="surface1">
<use xlink:href="#surface6" mask="url(#mask0)"/>
<path style=" stroke:none;fill-rule:evenodd;fill:url(#linear1);" d="M 19.082031 0.167969 L 4.273438 0.167969 C 3.808594 0.167969 3.351562 0.542969 3.242188 1.007812 L 0.273438 13.992188 C 0.164062 14.457031 0.453125 14.832031 0.914062 14.832031 L 15.726562 14.832031 C 16.1875 14.832031 16.648438 14.457031 16.753906 13.992188 L 19.726562 1.007812 C 19.832031 0.542969 19.542969 0.167969 19.082031 0.167969 Z M 19.082031 0.167969 "/>
<path style=" stroke:none;fill-rule:evenodd;fill:rgb(17.254902%,33.333333%,56.862745%);fill-opacity:1;" d="M 10.027344 11.425781 L 13.628906 11.425781 C 14.046875 11.425781 14.386719 11.78125 14.386719 12.21875 C 14.386719 12.652344 14.046875 13.007812 13.628906 13.007812 L 10.027344 13.007812 C 9.609375 13.007812 9.269531 12.65625 9.269531 12.21875 C 9.269531 11.78125 9.609375 11.425781 10.027344 11.425781 Z M 10.027344 11.425781 "/>
<path style=" stroke:none;fill-rule:evenodd;fill:rgb(17.254902%,33.333333%,56.862745%);fill-opacity:1;" d="M 12.363281 7.910156 C 12.300781 8.035156 12.171875 8.171875 11.945312 8.332031 L 5.261719 13.132812 C 4.894531 13.398438 4.371094 13.300781 4.089844 12.914062 C 3.808594 12.527344 3.875 12 4.242188 11.734375 L 10.269531 7.367188 L 10.269531 7.277344 L 6.480469 3.246094 C 6.171875 2.917969 6.207031 2.386719 6.554688 2.058594 C 6.902344 1.734375 7.4375 1.734375 7.746094 2.0625 L 12.289062 6.898438 C 12.546875 7.171875 12.566406 7.589844 12.363281 7.910156 Z M 12.363281 7.910156 "/>
<path style=" stroke:none;fill-rule:evenodd;fill:rgb(100%,100%,100%);fill-opacity:1;" d="M 12.195312 7.742188 C 12.136719 7.867188 12.007812 8.003906 11.777344 8.164062 L 5.09375 12.964844 C 4.726562 13.230469 4.203125 13.132812 3.921875 12.746094 C 3.640625 12.359375 3.710938 11.832031 4.074219 11.566406 L 10.105469 7.199219 L 10.105469 7.109375 L 6.316406 3.082031 C 6.007812 2.753906 6.039062 2.222656 6.386719 1.894531 C 6.734375 1.566406 7.269531 1.566406 7.578125 1.898438 L 12.125 6.730469 C 12.382812 7.007812 12.402344 7.421875 12.195312 7.742188 Z M 12.195312 7.742188 "/>
<path style=" stroke:none;fill-rule:evenodd;fill:rgb(100%,100%,100%);fill-opacity:1;" d="M 9.925781 11.332031 L 13.527344 11.332031 C 13.945312 11.332031 14.285156 11.667969 14.285156 12.082031 C 14.285156 12.496094 13.945312 12.832031 13.527344 12.832031 L 9.925781 12.832031 C 9.503906 12.832031 9.167969 12.496094 9.167969 12.082031 C 9.167969 11.667969 9.503906 11.332031 9.925781 11.332031 Z M 9.925781 11.332031 "/>
</g>
</svg>
