<?xml version="1.0" encoding="UTF-8"?>
<svg xmlns="http://www.w3.org/2000/svg" xmlns:xlink="http://www.w3.org/1999/xlink" width="10px" height="8px" viewBox="0 0 10 8" version="1.1">
<defs>
<filter id="alpha" filterUnits="objectBoundingBox" x="0%" y="0%" width="100%" height="100%">
  <feColorMatrix type="matrix" in="SourceGraphic" values="0 0 0 0 1 0 0 0 0 1 0 0 0 0 1 0 0 0 1 0"/>
</filter>
<mask id="mask0">
  <g filter="url(#alpha)">
<rect x="0" y="0" width="10" height="8" style="fill:rgb(0%,0%,0%);fill-opacity:0.8;stroke:none;"/>
  </g>
</mask>
<linearGradient id="linear0" gradientUnits="userSpaceOnUse" x1="95.266701" y1="91.9263" x2="26.700001" y2="30.68" gradientTransform="matrix(0.0833333,0,0,0.0888889,-0.333528,-1.688889)">
<stop offset="0" style="stop-color:rgb(66.27451%,78.431373%,100%);stop-opacity:1;"/>
<stop offset="1" style="stop-color:rgb(78.039216%,90.196078%,100%);stop-opacity:1;"/>
</linearGradient>
<clipPath id="clip1">
  <rect x="0" y="0" width="10" height="8"/>
</clipPath>
<g id="surface6" clip-path="url(#clip1)">
<path style=" stroke:none;fill-rule:evenodd;fill:url(#linear0);" d="M 0.417969 8 C 0.28125 8 0.164062 7.941406 0.0859375 7.839844 C 0.0078125 7.734375 -0.0195312 7.589844 0.0117188 7.441406 L 1.511719 0.515625 C 1.574219 0.226562 1.839844 0 2.113281 0 L 9.582031 0 C 9.71875 0 9.835938 0.0585938 9.914062 0.160156 C 9.992188 0.265625 10.019531 0.410156 9.988281 0.558594 L 8.488281 7.484375 C 8.425781 7.773438 8.160156 8 7.886719 8 Z M 0.417969 8 "/>
</g>
<linearGradient id="linear1" gradientUnits="userSpaceOnUse" x1="26.5854" y1="30.7778" x2="93.585403" y2="90.277802" gradientTransform="matrix(0.0833333,0,0,0.0888889,-0.333528,-1.688889)">
<stop offset="0" style="stop-color:rgb(17.647059%,27.45098%,39.215686%);stop-opacity:1;"/>
<stop offset="0.1689" style="stop-color:rgb(16.078431%,25.098039%,35.686275%);stop-opacity:1;"/>
<stop offset="0.4445" style="stop-color:rgb(11.764706%,18.431373%,26.27451%);stop-opacity:1;"/>
<stop offset="0.7902" style="stop-color:rgb(4.705882%,7.45098%,10.588235%);stop-opacity:1;"/>
<stop offset="1" style="stop-color:rgb(0%,0%,0%);stop-opacity:1;"/>
</linearGradient>
</defs>
<g id="surface1">
<use xlink:href="#surface6" mask="url(#mask0)"/>
<path style=" stroke:none;fill-rule:evenodd;fill:url(#linear1);" d="M 9.542969 0.0898438 L 2.136719 0.0898438 C 1.90625 0.0898438 1.675781 0.289062 1.621094 0.539062 L 0.136719 7.460938 C 0.0820312 7.710938 0.226562 7.910156 0.457031 7.910156 L 7.863281 7.910156 C 8.09375 7.910156 8.324219 7.710938 8.375 7.460938 L 9.863281 0.539062 C 9.917969 0.289062 9.773438 0.0898438 9.542969 0.0898438 Z M 9.542969 0.0898438 "/>
<path style=" stroke:none;fill-rule:evenodd;fill:rgb(17.254902%,33.333333%,56.862745%);fill-opacity:1;" d="M 5.011719 6.09375 L 6.816406 6.09375 C 7.023438 6.09375 7.195312 6.28125 7.195312 6.515625 C 7.195312 6.75 7.023438 6.9375 6.816406 6.9375 L 5.011719 6.9375 C 4.804688 6.9375 4.632812 6.75 4.632812 6.515625 C 4.632812 6.28125 4.804688 6.09375 5.011719 6.09375 Z M 5.011719 6.09375 "/>
<path style=" stroke:none;fill-rule:evenodd;fill:rgb(17.254902%,33.333333%,56.862745%);fill-opacity:1;" d="M 6.183594 4.21875 C 6.152344 4.285156 6.085938 4.359375 5.972656 4.445312 L 2.628906 7.003906 C 2.449219 7.144531 2.183594 7.09375 2.042969 6.886719 C 1.90625 6.679688 1.9375 6.398438 2.121094 6.257812 L 5.136719 3.929688 L 5.136719 3.882812 L 3.242188 1.730469 C 3.085938 1.558594 3.101562 1.273438 3.277344 1.097656 C 3.453125 0.925781 3.71875 0.925781 3.871094 1.101562 L 6.144531 3.679688 C 6.273438 3.824219 6.285156 4.046875 6.183594 4.21875 Z M 6.183594 4.21875 "/>
<path style=" stroke:none;fill-rule:evenodd;fill:rgb(100%,100%,100%);fill-opacity:1;" d="M 6.097656 4.128906 C 6.066406 4.195312 6.003906 4.269531 5.890625 4.355469 L 2.546875 6.914062 C 2.363281 7.058594 2.101562 7.003906 1.960938 6.796875 C 1.820312 6.59375 1.855469 6.308594 2.039062 6.167969 L 5.050781 3.839844 L 5.050781 3.792969 L 3.15625 1.644531 C 3.003906 1.46875 3.019531 1.183594 3.195312 1.011719 C 3.367188 0.835938 3.632812 0.835938 3.789062 1.011719 L 6.0625 3.589844 C 6.191406 3.738281 6.199219 3.957031 6.097656 4.128906 Z M 6.097656 4.128906 "/>
<path style=" stroke:none;fill-rule:evenodd;fill:rgb(100%,100%,100%);fill-opacity:1;" d="M 4.960938 6.042969 L 6.761719 6.042969 C 6.972656 6.042969 7.140625 6.222656 7.140625 6.445312 C 7.140625 6.664062 6.972656 6.84375 6.761719 6.84375 L 4.960938 6.84375 C 4.753906 6.84375 4.582031 6.664062 4.582031 6.445312 C 4.582031 6.222656 4.753906 6.042969 4.960938 6.042969 Z M 4.960938 6.042969 "/>
</g>
</svg>
