<?xml version="1.0" encoding="UTF-8"?>
<svg xmlns="http://www.w3.org/2000/svg" xmlns:xlink="http://www.w3.org/1999/xlink" width="32px" height="24px" viewBox="0 0 32 24" version="1.1">
<defs>
<filter id="alpha" filterUnits="objectBoundingBox" x="0%" y="0%" width="100%" height="100%">
  <feColorMatrix type="matrix" in="SourceGraphic" values="0 0 0 0 1 0 0 0 0 1 0 0 0 0 1 0 0 0 1 0"/>
</filter>
<mask id="mask0">
  <g filter="url(#alpha)">
<rect x="0" y="0" width="32" height="24" style="fill:rgb(0%,0%,0%);fill-opacity:0.8;stroke:none;"/>
  </g>
</mask>
<linearGradient id="linear0" gradientUnits="userSpaceOnUse" x1="95.266701" y1="91.9263" x2="26.700001" y2="30.68" gradientTransform="matrix(0.266667,0,0,0.266667,-1.06729,-5.066666)">
<stop offset="0" style="stop-color:rgb(66.27451%,78.431373%,100%);stop-opacity:1;"/>
<stop offset="1" style="stop-color:rgb(78.039216%,90.196078%,100%);stop-opacity:1;"/>
</linearGradient>
<clipPath id="clip1">
  <rect x="0" y="0" width="32" height="24"/>
</clipPath>
<g id="surface6" clip-path="url(#clip1)">
<path style=" stroke:none;fill-rule:evenodd;fill:url(#linear0);" d="M 1.339844 24 C 0.90625 24 0.527344 23.828125 0.28125 23.519531 C 0.0273438 23.203125 -0.0585938 22.769531 0.0429688 22.328125 L 4.839844 1.550781 C 5.039062 0.683594 5.882812 0 6.757812 0 L 30.660156 0 C 31.09375 0 31.472656 0.171875 31.71875 0.480469 C 31.972656 0.796875 32.058594 1.230469 31.957031 1.671875 L 27.160156 22.449219 C 26.960938 23.316406 26.117188 24 25.242188 24 Z M 1.339844 24 "/>
</g>
<linearGradient id="linear1" gradientUnits="userSpaceOnUse" x1="26.5854" y1="30.7778" x2="93.585403" y2="90.277802" gradientTransform="matrix(0.266667,0,0,0.266667,-1.06729,-5.066666)">
<stop offset="0" style="stop-color:rgb(17.647059%,27.45098%,39.215686%);stop-opacity:1;"/>
<stop offset="0.1689" style="stop-color:rgb(16.078431%,25.098039%,35.686275%);stop-opacity:1;"/>
<stop offset="0.4445" style="stop-color:rgb(11.764706%,18.431373%,26.27451%);stop-opacity:1;"/>
<stop offset="0.7902" style="stop-color:rgb(4.705882%,7.45098%,10.588235%);stop-opacity:1;"/>
<stop offset="1" style="stop-color:rgb(0%,0%,0%);stop-opacity:1;"/>
</linearGradient>
</defs>
<g id="surface1">
<use xlink:href="#surface6" mask="url(#mask0)"/>
<path style=" stroke:none;fill-rule:evenodd;fill:url(#linear1);" d="M 30.53125 0.265625 L 6.835938 0.265625 C 6.097656 0.265625 5.359375 0.867188 5.191406 1.613281 L 0.433594 22.386719 C 0.265625 23.132812 0.726562 23.734375 1.464844 23.734375 L 25.160156 23.734375 C 25.898438 23.734375 26.636719 23.132812 26.804688 22.386719 L 31.5625 1.613281 C 31.730469 0.867188 31.269531 0.265625 30.53125 0.265625 Z M 30.53125 0.265625 "/>
<path style=" stroke:none;fill-rule:evenodd;fill:rgb(17.254902%,33.333333%,56.862745%);fill-opacity:1;" d="M 16.042969 18.28125 L 21.808594 18.28125 C 22.476562 18.28125 23.019531 18.847656 23.019531 19.546875 C 23.019531 20.246094 22.476562 20.8125 21.808594 20.8125 L 16.042969 20.8125 C 15.375 20.8125 14.828125 20.246094 14.828125 19.546875 C 14.828125 18.847656 15.375 18.28125 16.042969 18.28125 Z M 16.042969 18.28125 "/>
<path style=" stroke:none;fill-rule:evenodd;fill:rgb(17.254902%,33.333333%,56.862745%);fill-opacity:1;" d="M 19.78125 12.65625 C 19.683594 12.855469 19.476562 13.074219 19.113281 13.332031 L 8.414062 21.011719 C 7.832031 21.4375 6.992188 21.28125 6.542969 20.660156 C 6.09375 20.042969 6.203125 19.195312 6.785156 18.773438 L 16.433594 11.789062 L 16.433594 11.644531 L 10.371094 5.195312 C 9.878906 4.671875 9.929688 3.820312 10.488281 3.296875 C 11.042969 2.773438 11.898438 2.777344 12.390625 3.300781 L 19.664062 11.039062 C 20.078125 11.476562 20.105469 12.140625 19.78125 12.65625 Z M 19.78125 12.65625 "/>
<path style=" stroke:none;fill-rule:evenodd;fill:rgb(100%,100%,100%);fill-opacity:1;" d="M 19.515625 12.386719 C 19.414062 12.585938 19.210938 12.808594 18.847656 13.0625 L 8.148438 20.746094 C 7.566406 21.171875 6.726562 21.011719 6.277344 20.394531 C 5.828125 19.777344 5.9375 18.929688 6.519531 18.507812 L 16.164062 11.519531 L 16.164062 11.378906 L 10.105469 4.929688 C 9.609375 4.402344 9.660156 3.554688 10.21875 3.03125 C 10.777344 2.507812 11.628906 2.507812 12.125 3.035156 L 19.398438 10.769531 C 19.808594 11.210938 19.839844 11.875 19.515625 12.386719 Z M 19.515625 12.386719 "/>
<path style=" stroke:none;fill-rule:evenodd;fill:rgb(100%,100%,100%);fill-opacity:1;" d="M 15.878906 18.132812 L 21.644531 18.132812 C 22.3125 18.132812 22.855469 18.671875 22.855469 19.332031 C 22.855469 19.996094 22.3125 20.535156 21.644531 20.535156 L 15.878906 20.535156 C 15.210938 20.535156 14.667969 19.996094 14.667969 19.332031 C 14.667969 18.671875 15.210938 18.132812 15.878906 18.132812 Z M 15.878906 18.132812 "/>
</g>
</svg>
