<?xml version="1.0" encoding="UTF-8"?>
<svg xmlns="http://www.w3.org/2000/svg" xmlns:xlink="http://www.w3.org/1999/xlink" width="32px" height="32px" viewBox="0 0 32 32" version="1.1">
<defs>
<linearGradient id="linear0" gradientUnits="userSpaceOnUse" x1="26.648937" y1="20.603781" x2="135.66525" y2="114.39767" gradientTransform="matrix(0.17309,0,0,0.144247,-4.612652,-2.972031)">
<stop offset="0" style="stop-color:rgb(35.294118%,62.352941%,83.137255%);stop-opacity:1;"/>
<stop offset="1" style="stop-color:rgb(18.823529%,41.176471%,59.607843%);stop-opacity:1;"/>
</linearGradient>
<linearGradient id="linear1" gradientUnits="userSpaceOnUse" x1="150.96111" y1="192.35176" x2="112.03144" y2="137.27299" gradientTransform="matrix(0.17309,0,0,0.144247,-4.612652,-2.972031)">
<stop offset="0" style="stop-color:rgb(100%,83.137255%,23.137255%);stop-opacity:1;"/>
<stop offset="1" style="stop-color:rgb(100%,90.980392%,45.098039%);stop-opacity:1;"/>
</linearGradient>
<filter id="alpha" filterUnits="objectBoundingBox" x="0%" y="0%" width="100%" height="100%">
  <feColorMatrix type="matrix" in="SourceGraphic" values="0 0 0 0 1 0 0 0 0 1 0 0 0 0 1 0 0 0 1 0"/>
</filter>
<mask id="mask0">
  <g filter="url(#alpha)">
<rect x="0" y="0" width="32" height="32" style="fill:rgb(0%,0%,0%);fill-opacity:0.443137;stroke:none;"/>
  </g>
</mask>
<radialGradient id="radial0" gradientUnits="userSpaceOnUse" cx="61.518883" cy="132.28575" fx="61.518883" fy="132.28575" r="29.036913" gradientTransform="matrix(0.00000000538171,-0.0609389,0.324513,0.0000000962932,-25.754092,36.180828)">
<stop offset="0" style="stop-color:rgb(72.156863%,72.156863%,72.156863%);stop-opacity:0.498039;"/>
<stop offset="1" style="stop-color:rgb(49.803922%,49.803922%,49.803922%);stop-opacity:0;"/>
</radialGradient>
<clipPath id="clip1">
  <rect x="0" y="0" width="32" height="32"/>
</clipPath>
<g id="surface5" clip-path="url(#clip1)">
<path style=" stroke:none;fill-rule:nonzero;fill:url(#radial0);" d="M 28.230469 32.433594 C 28.230469 31.453125 23.28125 30.664062 17.175781 30.664062 C 11.070312 30.664062 6.117188 31.453125 6.117188 32.433594 C 6.117188 33.410156 11.070312 34.203125 17.175781 34.203125 C 23.28125 34.203125 28.230469 33.410156 28.230469 32.433594 Z M 28.230469 32.433594 "/>
</g>
</defs>
<g id="surface1">
<path style=" stroke:none;fill-rule:nonzero;fill:url(#linear0);" d="M 16.898438 0 C 15.488281 0.00390625 14.140625 0.105469 12.957031 0.277344 C 9.464844 0.785156 8.832031 1.851562 8.832031 3.816406 L 8.832031 6.414062 L 17.082031 6.414062 L 17.082031 7.277344 L 5.734375 7.277344 C 3.335938 7.277344 1.238281 8.46875 0.582031 10.730469 C -0.175781 13.324219 -0.210938 14.941406 0.582031 17.652344 C 1.167969 19.667969 2.566406 21.101562 4.964844 21.101562 L 7.800781 21.101562 L 7.800781 17.992188 C 7.800781 15.746094 10.15625 13.761719 12.957031 13.761719 L 21.195312 13.761719 C 23.488281 13.761719 25.320312 12.203125 25.320312 10.300781 L 25.320312 3.816406 C 25.320312 1.972656 23.433594 0.585938 21.195312 0.277344 C 19.777344 0.0820312 18.308594 -0.00390625 16.898438 0 Z M 12.4375 2.085938 C 13.289062 2.085938 13.984375 2.671875 13.984375 3.390625 C 13.984375 4.105469 13.289062 4.683594 12.4375 4.683594 C 11.582031 4.683594 10.886719 4.105469 10.886719 3.390625 C 10.886719 2.671875 11.582031 2.085938 12.4375 2.085938 Z M 12.4375 2.085938 "/>
<path style=" stroke:none;fill-rule:nonzero;fill:url(#linear1);" d="M 26.351562 7.277344 L 26.351562 10.300781 C 26.351562 12.644531 23.941406 14.621094 21.195312 14.621094 L 12.957031 14.621094 C 10.699219 14.621094 8.832031 16.214844 8.832031 18.078125 L 8.832031 24.5625 C 8.832031 26.410156 10.773438 27.496094 12.957031 28.023438 C 15.566406 28.65625 18.070312 28.773438 21.195312 28.023438 C 23.273438 27.527344 25.320312 26.527344 25.320312 24.5625 L 25.320312 21.96875 L 17.082031 21.96875 L 17.082031 21.101562 L 29.445312 21.101562 C 31.84375 21.101562 32.738281 19.722656 33.570312 17.652344 C 34.433594 15.519531 34.394531 13.464844 33.570312 10.730469 C 32.980469 8.761719 31.847656 7.277344 29.445312 7.277344 Z M 21.714844 23.699219 C 22.570312 23.699219 23.261719 24.277344 23.261719 24.992188 C 23.261719 25.710938 22.570312 26.292969 21.714844 26.292969 C 20.863281 26.292969 20.167969 25.710938 20.167969 24.992188 C 20.167969 24.277344 20.863281 23.699219 21.714844 23.699219 Z M 21.714844 23.699219 "/>
<use xlink:href="#surface5" mask="url(#mask0)"/>
</g>
</svg>
